<?xml version="1.0" encoding="UTF-8" standalone="no"?>
<!-- Created with Inkscape (http://www.inkscape.org/) -->

<svg
   xmlns:dc="http://purl.org/dc/elements/1.1/"
   xmlns:cc="http://creativecommons.org/ns#"
   xmlns:rdf="http://www.w3.org/1999/02/22-rdf-syntax-ns#"
   xmlns:svg="http://www.w3.org/2000/svg"
   xmlns="http://www.w3.org/2000/svg"
   xmlns:sodipodi="http://sodipodi.sourceforge.net/DTD/sodipodi-0.dtd"
   xmlns:inkscape="http://www.inkscape.org/namespaces/inkscape"
   width="210mm"
   height="297mm"
   viewBox="0 0 210 297"
   version="1.1"
   id="svg8"
   sodipodi:docname="logoOrbit3.svg"
   inkscape:version="0.92.4 (5da689c313, 2019-01-14)">
  <defs
     id="defs2" />
  <sodipodi:namedview
     id="base"
     pagecolor="#ffffff"
     bordercolor="#666666"
     borderopacity="1.0"
     inkscape:pageopacity="0.0"
     inkscape:pageshadow="2"
     inkscape:zoom="1"
     inkscape:cx="483.89959"
     inkscape:cy="419.23033"
     inkscape:document-units="mm"
     inkscape:current-layer="layer2"
     showgrid="false"
     inkscape:window-width="1920"
     inkscape:window-height="1018"
     inkscape:window-x="-8"
     inkscape:window-y="-8"
     inkscape:window-maximized="1" />
  <metadata
     id="metadata5">
    <rdf:RDF>
      <cc:Work
         rdf:about="">
        <dc:format>image/svg+xml</dc:format>
        <dc:type
           rdf:resource="http://purl.org/dc/dcmitype/StillImage" />
        <dc:title />
      </cc:Work>
    </rdf:RDF>
  </metadata>
  <!--Círculo que representa a letra O de Orbit-->
  <g
     inkscape:label="Layer 1"
     inkscape:groupmode="layer"
     id="layer1">
    <ellipse
       id="path3847"
       style="fill:#ffffff;fill-opacity:1;stroke:#000000;stroke-width:5;stroke-miterlimit:4;stroke-dasharray:none;stroke-opacity:1"
       cx="93.327362"
       cy="145.36505"
       rx="49.99789"
       ry="51.039764" />
  </g>
  <!--Disco da letra O de orbit-->
  <g
     inkscape:groupmode="layer"
     id="layer2"
     inkscape:label="Layer 2">
    <!-- 2.9222149-->
    <ellipse
       id="path3847-6"
       style="opacity:1;fill:#ffffff;fill-opacity:0;stroke:#000000;stroke-width:4.99969387;stroke-miterlimit:4;stroke-dasharray:none;stroke-opacity:1"
       cx="133.30748"
       cy="108.49982"
       rx="17.134918"
       ry="80.741257"
       transform="matrix(0.14645566,-0.98921724,0.63276212,0.77434624,0,0)" />
    <ellipse
       style="opacity:1;fill:#ffffff;fill-opacity:1;stroke:#000000;stroke-width:2.94235206;stroke-miterlimit:4;stroke-dasharray:none;stroke-opacity:1"
       id="path4581"
       cx="-51.828148"
       cy="166.16776"
       rx="89.545448"
       ry="1.0525012"
       transform="rotate(-50.637735)" />
    <ellipse
       style="opacity:1;fill:#ffffff;fill-opacity:1;stroke:#000000;stroke-width:2.94235206;stroke-miterlimit:4;stroke-dasharray:none;stroke-opacity:1"
       id="path4581-1"
       cx="-169.73965"
       cy="-13.924204"
       rx="89.545448"
       ry="1.0525012"
       transform="rotate(-126.51212)" />
    <text
       xml:space="preserve"
       style="font-style:normal;font-weight:normal;font-size:37.17540741px;line-height:1.25;font-family:sans-serif;letter-spacing:0px;word-spacing:0px;fill:#000000;fill-opacity:1;stroke:none;stroke-width:0.92938519"
       x="76.967644"
       y="131.95502"
       id="text4600"
       transform="scale(1.0232273,0.97729995)"><tspan
         sodipodi:role="line"
         id="tspan4598"
         x="76.967644"
         y="131.95502"
         style="stroke-width:0.92938519">+</tspan></text>
    <text
       xml:space="preserve"
       style="font-style:normal;font-weight:normal;font-size:68.6986084px;line-height:1.25;font-family:sans-serif;letter-spacing:0px;word-spacing:0px;fill:#000000;fill-opacity:1;stroke:none;stroke-width:1.71746516"
       x="32.660175"
       y="214.56473"
       id="text4604"
       transform="scale(1.2981305,0.77033857)"><tspan
         sodipodi:role="line"
         id="tspan4602"
         x="32.660175"
         y="214.56473"
         style="stroke-width:1.71746516">-</tspan></text>
    <text
       xml:space="preserve"
       style="font-style:normal;font-weight:normal;font-size:37.34514999px;line-height:1.25;font-family:sans-serif;letter-spacing:0px;word-spacing:0px;fill:#000000;fill-opacity:1;stroke:none;stroke-width:0.93362874"
       x="96.976326"
       y="183.70345"
       id="text4612"
       transform="scale(1.1477799,0.87124721)"><tspan
         sodipodi:role="line"
         id="tspan4610"
         x="96.976326"
         y="183.70345"
         style="stroke-width:0.93362874">x</tspan></text>
    <text
       xml:space="preserve"
       style="font-style:normal;font-weight:normal;font-size:68.6986084px;line-height:1.25;font-family:sans-serif;letter-spacing:0px;word-spacing:0px;fill:#000000;fill-opacity:1;stroke:none;stroke-width:1.71746528"
       x="55.309761"
       y="254.8793"
       id="text4604-8"
       transform="scale(1.2981305,0.77033858)"><tspan
         sodipodi:role="line"
         id="tspan4602-6"
         x="55.309761"
         y="254.8793"
         style="stroke-width:1.71746528">-</tspan></text>
    <ellipse
       style="opacity:1;fill:#ffffff;fill-opacity:1;stroke:#000000;stroke-width:4.43046331;stroke-miterlimit:4;stroke-dasharray:none;stroke-opacity:1"
       id="path4632"
       cx="92.285011"
       cy="172.17413"
       rx="1.2552377"
       ry="1.2438891" />
    <ellipse
       style="opacity:1;fill:#ffffff;fill-opacity:1;stroke:#000000;stroke-width:4.43046331;stroke-miterlimit:4;stroke-dasharray:none;stroke-opacity:1"
       id="path4632-4"
       cx="92.47187"
       cy="186.80104"
       rx="1.2552377"
       ry="1.2438891" />
    <path
       style="fill:#000000;fill-opacity:1;fill-rule:nonzero;stroke:none;stroke-width:0.26458332"
       id="path4678"
       d="m 92.825394,187.04929 c 0.01392,0.12947 0.0542,0.25469 0.109884,0.37194 0.0092,0.0119 0.01548,0.0267 0.02744,0.0358 0.0063,0.005 0.01564,0.002 0.02344,0.003 -0.135885,0.0688 -0.26705,0.14778 -0.407654,0.20629 -0.01707,0.007 0.0217,-0.0306 0.02751,-0.0481 0.0199,-0.0599 0.02714,-0.16472 0.03341,-0.2221 0.01728,-0.21139 0.02365,-0.42627 -0.03622,-0.63222 -0.03975,-0.13677 -0.06577,-0.17258 -0.130215,-0.29748 -0.0995,-0.1433 -0.249068,-0.32987 -0.428043,-0.37794 -0.02365,-0.006 -0.04877,-0.004 -0.07316,-0.007 -0.235034,0.10226 0.188847,-0.12182 0.291941,-0.16504 0.02569,-0.0108 -0.0389,0.0404 -0.05376,0.064 -0.01865,0.0296 -0.03339,0.0617 -0.04605,0.0943 -0.03509,0.0904 -0.0435,0.15336 -0.06295,0.2487 -0.02381,0.19309 -0.02995,0.40588 0.05353,0.5877 0.0122,0.0266 0.03024,0.0501 0.04536,0.0751 0.0867,0.10056 0.225647,0.16787 0.361812,0.14024 0.02739,-0.006 0.05235,-0.0196 0.07852,-0.0294 -0.111778,0.0616 -0.218546,0.13327 -0.335338,0.1847 -0.03153,0.0139 0.05326,-0.0442 0.0757,-0.0704 0.109183,-0.12712 0.153431,-0.28945 0.193061,-0.44795 0.02297,-0.15871 0.02717,-0.34627 -0.100598,-0.46496 -0.0186,-0.0173 -0.04111,-0.0298 -0.06167,-0.0446 -0.08177,-0.0376 -0.17032,-0.0578 -0.25831,-0.0241 -0.03301,0.0127 -0.12368,0.0683 -0.09145,0.0538 0.344969,-0.15549 0.39723,-0.25828 0.228037,-0.0397 -0.147886,0.25945 -0.22112,0.55747 -0.238263,0.85481 -0.0032,0.0554 -7.93e-4,0.11097 -0.0013,0.16645 0.0127,0.16026 0.03494,0.34003 0.165503,0.45185 0.07063,0.0605 0.09383,0.056 0.181969,0.0796 -0.04605,0.0837 0.30126,-0.0837 0.236564,-0.0369 -0.08704,0.0629 -0.180271,0.12332 -0.283461,0.15299 -0.05036,0.0145 0.08183,-0.0662 0.11689,-0.1051 0.09131,-0.10139 0.114938,-0.1669 0.17729,-0.28772 0.09986,-0.24413 0.163285,-0.51792 0.09138,-0.77933 -0.01109,-0.0403 -0.02992,-0.0781 -0.04488,-0.11722 -0.06934,-0.12895 -0.179625,-0.26785 -0.339986,-0.27567 -0.02519,-0.001 -0.05025,0.005 -0.07537,0.007 -0.248288,0.12026 0.171386,-0.11291 0.266277,-0.14997 0.0324,-0.0126 -0.04946,0.0494 -0.06959,0.0778 -0.07262,0.10241 -0.102111,0.22139 -0.132835,0.34063 -0.02416,0.15066 -0.07565,0.36642 0.05133,0.48984 0.01783,0.0173 0.04106,0.028 0.06159,0.042 0.07945,0.0384 0.165695,0.0462 0.251047,0.0197 0.03024,-0.009 0.113472,-0.0561 0.08598,-0.0404 -0.383842,0.21934 -0.413877,0.26343 -0.257762,0.10681 0.130164,-0.16693 0.188981,-0.36972 0.196511,-0.57869 -0.01183,-0.17644 -0.05428,-0.203 -0.220292,-0.23365 -0.03079,-0.002 -0.06157,-0.006 -0.09236,-0.005 -0.06646,0.003 -0.148328,0.0218 -0.209317,0.0468 -0.03715,0.0152 -0.142447,0.0741 -0.106977,0.0553 0.345295,-0.18298 0.383138,-0.23755 0.208688,-0.067 -0.113464,0.14293 -0.206735,0.31533 -0.224555,0.50047 -0.0024,0.0245 2.44e-4,0.0491 2.65e-4,0.0737 0.0051,0.0184 0.0063,0.0385 0.0154,0.0553 0.04382,0.0811 0.162357,0.0827 0.2374,0.0619 0.03437,-0.01 0.06655,-0.0257 0.09982,-0.0385 -0.09979,0.0547 -0.193338,0.12279 -0.299373,0.16411 -0.04317,0.0168 0.07405,-0.0562 0.106728,-0.089 0.132447,-0.13315 0.199186,-0.29892 0.254219,-0.47424 0.02249,-0.13406 0.05341,-0.3217 -0.06175,-0.42727 -0.01714,-0.0157 -0.03897,-0.0254 -0.05846,-0.038 -0.115797,-0.0529 -0.241247,-0.0644 -0.363979,-0.0263 -0.03918,0.0122 -0.148137,0.0696 -0.113408,0.0478 0.09419,-0.0592 0.195114,-0.10704 0.292671,-0.16055 -0.267263,0.20455 -0.365982,0.4175 -0.449892,0.73395 -0.01802,0.127 -0.04978,0.33981 0.0957,0.41343 0.01823,0.009 0.0398,0.009 0.0597,0.0139 0.02244,-0.005 0.04627,-0.005 0.06729,-0.0137 0.02569,-0.0111 0.09574,-0.0576 0.0704,-0.0458 -0.110982,0.0521 -0.209124,0.13616 -0.327885,0.16652 -0.04251,0.0109 0.05739,-0.0667 0.08136,-0.10349 0.06521,-0.10004 0.08065,-0.15667 0.124029,-0.26764 0.06351,-0.21558 0.117062,-0.44728 0.07344,-0.67274 -0.0063,-0.0326 -0.01871,-0.0638 -0.02807,-0.0957 -0.03954,-0.088 -0.100801,-0.21984 -0.21459,-0.22923 -0.01619,-0.001 -0.03227,0.004 -0.04841,0.006 -0.194514,0.12292 0.137615,-0.0885 0.310634,-0.1645 0.02521,-0.0111 -0.03897,0.0393 -0.05496,0.0617 -0.06076,0.0853 -0.08532,0.18362 -0.111318,0.28307 -0.02622,0.15447 -0.05933,0.33233 0.0071,0.48261 0.0085,0.0193 0.02254,0.0356 0.03382,0.0533 0.154495,0.12587 0.274833,0.0721 0.429342,-0.0199 -0.106768,0.057 -0.206918,0.12864 -0.320302,0.17095 -0.03467,0.0129 0.05337,-0.0515 0.07688,-0.0801 0.02244,-0.0273 0.04247,-0.0566 0.06057,-0.087 0.05053,-0.0847 0.07636,-0.17252 0.09691,-0.2678 0.01315,-0.20968 -0.09237,-0.26275 -0.272868,-0.3193 -0.09603,-0.0246 -0.196038,-0.0333 -0.293523,-0.01 -0.112541,0.0273 -0.607359,0.31378 0.164414,-0.10441 -0.106145,0.0907 -0.160046,0.21014 -0.185507,0.34424 2.65e-4,0.0279 -0.0031,0.0573 0.01064,0.0834 0.03964,0.0755 0.201965,0.0837 0.270698,0.0942 0.288372,0.0393 0.577287,0.0214 0.860116,-0.043 -0.07095,0.0593 0.208735,-0.0932 0.159215,-0.0644 -0.123306,0.0716 -0.247631,0.14137 -0.372316,0.2105 -0.06256,0.008 0.02955,-0.023 0.02569,-0.014 -0.0031,0.007 -0.0093,0.0127 -0.01389,0.019 -0.01601,0.007 -0.0327,0.012 -0.048,0.0201 -0.02482,0.0133 -0.09704,0.057 -0.07203,0.0441 0.105651,-0.0546 0.202391,-0.12835 0.314108,-0.16907 0.04459,-0.0162 -0.07327,0.0605 -0.107246,0.0937 -0.09236,0.0901 -0.127331,0.14118 -0.207669,0.24274 -0.107751,0.16642 -0.250981,0.35271 -0.259675,0.55896 0.0055,0.0519 0.03733,0.072 0.08574,0.081 0.01251,0.002 0.02527,0.006 0.03793,0.005 0.01558,-0.002 0.02996,-0.009 0.04494,-0.0139 0.204568,-0.1217 -0.179639,0.10769 -0.296434,0.16057 -0.02993,0.0135 0.04984,-0.043 0.0726,-0.0667 0.08083,-0.0841 0.141576,-0.17991 0.20111,-0.2794 0.04506,-0.0908 0.09536,-0.1838 0.103865,-0.28646 2.64e-4,-0.004 -0.0046,0.0133 -0.0011,0.0117 0.139528,-0.0641 0.276156,-0.13438 0.414237,-0.20157 -0.09623,0.11036 -0.125019,0.26105 -0.150525,0.40122 -0.02238,0.1413 -0.01175,0.19412 0.126371,0.2435 0.02074,0.005 0.04101,0.0125 0.06221,0.0138 0.03204,0.002 0.0989,-0.0107 0.128122,-0.0234 0.02053,-0.009 0.07693,-0.0455 0.05724,-0.0349 -0.372295,0.20024 -0.459496,0.30086 -0.321633,0.15578 0.03299,-0.0484 0.105389,-0.14658 0.0441,-0.1993 -0.118782,-0.0447 -0.239795,0.009 -0.34711,0.0598 0.63967,-0.37433 0.292542,-0.18104 0.171934,-0.0632 -0.06127,0.0599 -0.103828,0.12571 -0.144372,0.20021 -0.0208,0.057 -0.09198,0.18018 -0.01953,0.23075 0.01077,0.008 0.02463,0.009 0.03696,0.0137 0.08223,0.003 0.15892,-0.0169 0.23222,-0.0545 0.0344,-0.0176 0.133845,-0.077 0.09905,-0.0602 -0.312748,0.15106 -0.399367,0.24907 -0.211227,0.0711 0.131672,-0.14739 0.222337,-0.32697 0.235971,-0.52536 -0.0093,-0.11483 -0.04001,-0.15228 -0.149627,-0.17888 -0.07498,-0.0182 -0.142116,0.005 -0.208817,0.0397 -0.02656,0.0139 -0.103225,0.061 -0.07651,0.0473 0.346363,-0.17673 0.423971,-0.2751 0.266369,-0.10667 -0.08831,0.11656 -0.16851,0.2499 -0.182176,0.39841 0.0029,0.0101 0.0024,0.022 0.0088,0.0303 0.0063,0.008 0.01709,0.0124 0.0268,0.0163 0.104804,0.0417 0.203309,7.9e-4 0.302274,-0.036 0.03625,-0.0211 0.146677,-0.0811 0.108759,-0.0632 -0.09927,0.0468 -0.186759,0.12286 -0.293076,0.15015 -0.04788,0.0123 0.07354,-0.0662 0.107212,-0.10243 0.09654,-0.10373 0.165856,-0.21814 0.231383,-0.34251 0.02598,-0.0696 0.123677,-0.26641 0.08499,-0.34436 -0.0021,-0.004 -0.009,-0.004 -0.01355,-0.006 -0.112233,0.14064 0.0058,-0.0135 0.366485,-0.18558 0.02045,-0.01 -0.03348,0.0307 -0.04792,0.0482 -0.01775,0.0215 -0.03393,0.0443 -0.04835,0.0681 -0.04287,0.0709 -0.0498,0.10007 -0.07943,0.17804 -0.03824,0.14221 -0.08894,0.29594 -0.05183,0.44339 0.02199,0.0296 0.05409,0.05 0.09298,0.0393 0.01524,-0.004 0.05609,-0.0292 0.04221,-0.0216 -0.394512,0.21581 -0.463462,0.30324 -0.317621,0.14423 0.106185,-0.16843 0.127934,-0.37005 0.14542,-0.56412 -0.0024,-0.0805 0.015,-0.21096 -0.06609,-0.26079 -0.134199,0.0314 -0.502893,0.2332 0.31613,-0.1859 0.02027,-0.0104 -0.037,0.0268 -0.0532,0.0428 -0.04518,0.0446 -0.05994,0.0754 -0.09392,0.12947 -0.0737,0.13675 -0.104198,0.2879 -0.120009,0.44077 0.0027,0.031 -0.01111,0.0952 0.02037,0.11964 0.01648,0.0128 0.0496,-0.004 0.06215,-0.008 -0.126344,0.0676 -0.252687,0.13522 -0.379031,0.20283 0.01601,-0.0168 0.0345,-0.0316 0.04801,-0.0504 0.108506,-0.1516 0.129122,-0.35782 0.15244,-0.53661 0.02737,-0.20717 0.0094,-0.38727 -0.08592,-0.57369 -0.0325,-0.0455 -0.145346,-0.17111 -0.215069,-0.14166 -0.01323,0.006 -0.02106,0.0195 -0.0316,0.0293 0.637249,-0.3655 0.38449,-0.28782 0.314672,-0.0988 -0.02619,0.0709 -0.03584,0.14558 -0.04584,0.21997 -0.01175,0.11929 -0.01696,0.24913 0.03988,0.3584 0.0075,0.007 0.01296,0.0171 0.02262,0.0198 0.02236,0.006 0.08202,-0.0433 0.06141,-0.0326 -0.126222,0.0651 -0.244433,0.14634 -0.37506,0.20204 -0.02196,0.009 0.02931,-0.038 0.04023,-0.0593 0.01336,-0.0259 0.02146,-0.0543 0.03217,-0.0814 0.04707,-0.17069 0.06526,-0.34908 0.06161,-0.52586 -0.0053,-0.0326 -0.0078,-0.15127 -0.06973,-0.14271 -0.02294,0.003 -0.0632,0.0408 -0.07615,0.0512 0.608296,-0.36224 0.36966,-0.24441 0.26605,-0.0706 -0.03619,0.0607 -0.05976,0.12469 -0.08143,0.1915 -0.0452,0.2212 0.132966,0.0138 -0.429676,0.27487 -0.0092,0.004 0.01614,-0.0127 0.02241,-0.0207 0.0077,-0.01 0.01265,-0.0215 0.01897,-0.0323 0.01884,-0.0526 0.06126,-0.12725 0.02793,-0.18157 -0.04438,-0.0375 -0.07171,-0.0891 -0.105611,-0.13514 -0.04698,-0.0337 -0.08509,-0.0646 -0.110458,-0.11825 -0.01206,-0.035 -0.02916,-0.10591 0.01349,-0.13068 0.147461,-0.0856 0.297839,-0.16614 0.44676,-0.24921 0,0 -0.387715,0.30288 -0.387715,0.30288 v 0 c 0.133294,-0.0774 0.267832,-0.15269 0.399886,-0.23219 0.0063,-0.004 -0.01463,0.002 -0.0217,0.005 -0.03179,0.01 -0.03255,0.0346 -0.02249,0.0627 0.02199,0.0501 0.06994,0.0704 0.105048,0.11028 0.03422,0.0481 0.06592,0.0978 0.108894,0.13905 0.04097,0.0733 0.01815,0.14963 -0.0081,0.22519 -0.0038,0.01 -0.02817,0.0715 -0.02992,0.0725 -0.248224,0.14075 -0.517652,0.40769 -0.466775,0.11536 0.02919,-0.0976 0.06489,-0.1889 0.120959,-0.27464 0.01498,-0.0229 0.02514,-0.0513 0.04754,-0.067 0.14986,-0.10509 0.309878,-0.19488 0.464818,-0.29232 0.01881,-0.007 0.03658,-0.0181 0.05646,-0.0205 0.108214,-0.013 0.134696,0.11897 0.141774,0.19688 0.0038,0.18205 -0.01807,0.36476 -0.05688,0.54251 -0.0041,0.0139 -0.03855,0.14424 -0.05885,0.15894 -0.145883,0.10562 -0.302524,0.19588 -0.458972,0.28512 -0.01508,0.009 -0.03448,0.008 -0.05167,0.006 -0.03904,-0.005 -0.04945,-0.0261 -0.07301,-0.0524 -0.05789,-0.11931 -0.05906,-0.25649 -0.04816,-0.3864 0.0117,-0.10138 0.02402,-0.20524 0.06323,-0.30053 0.0083,-0.02 0.01161,-0.0456 0.02937,-0.0581 0.146029,-0.10213 0.303318,-0.18712 0.454977,-0.28068 0.01617,-0.002 0.03218,-0.008 0.04848,-0.007 0.09673,0.006 0.184102,0.11403 0.234513,0.18448 0.09769,0.19709 0.122052,0.38329 0.09349,0.60185 -0.02654,0.21316 -0.05222,0.43655 -0.173736,0.61985 -0.156287,0.0879 -0.307861,0.18483 -0.468863,0.26381 -0.04747,0.0233 -0.102476,-0.044 -0.114168,-0.0792 -0.01132,-0.0341 -0.0087,-0.0705 -0.0092,-0.10557 0.01659,-0.15868 0.04588,-0.31558 0.114699,-0.46103 0.150636,-0.27702 0.232585,-0.26628 0.600739,-0.45707 0.03085,-0.016 0.05983,0.003 0.08603,0.0138 0.01021,0.009 0.02188,0.0174 0.03064,0.0282 0.06044,0.0745 0.04877,0.19107 0.05115,0.27902 -0.01865,0.20029 -0.04224,0.40586 -0.132241,0.58844 -0.141402,0.21165 -0.04845,0.0934 -0.513321,0.34331 -0.06536,0.0351 -0.147206,-0.0315 -0.177885,-0.0825 -0.03995,-0.15777 0.0078,-0.31927 0.04702,-0.47288 0.02569,-0.0772 0.03502,-0.11538 0.07201,-0.18726 0.103079,-0.20032 0.359334,-0.46465 0.590024,-0.38209 0.0089,0.011 0.0208,0.02 0.02672,0.0328 0.04615,0.1 -0.05087,0.28936 -0.08394,0.37969 -0.01963,0.0393 -0.03715,0.0797 -0.05892,0.11792 -0.212696,0.3728 -0.507503,0.53858 -0.905725,0.72868 -0.03573,0.0106 -0.07064,0.0246 -0.107198,0.0319 -0.08692,0.0173 -0.217477,0.0149 -0.273357,-0.07 -0.009,-0.0138 -0.01045,-0.0312 -0.01569,-0.0469 0.0048,-0.15858 0.08893,-0.30271 0.176297,-0.43067 0.18111,-0.22506 0.04858,-0.0782 0.549754,-0.38238 0.09597,-0.0582 0.203036,-0.0896 0.313664,-0.0594 0.124714,0.0448 0.166666,0.10301 0.180279,0.23589 -0.0096,0.20848 -0.09946,0.401 -0.230508,0.56167 -0.2252,0.23139 -0.07668,0.0937 -0.598329,0.40994 -0.112408,0.0682 -0.237304,0.1155 -0.36886,0.0823 -0.01635,-0.0106 -0.0349,-0.0184 -0.04902,-0.0319 -0.08105,-0.0771 -0.03537,-0.19446 -0.0011,-0.28118 0.02948,-0.0598 0.04089,-0.0889 0.08106,-0.14432 0.171032,-0.2361 0.470347,-0.35242 0.709171,-0.48946 0.123835,-0.049 0.26929,-0.10063 0.389964,-0.0165 0.0088,0.0107 0.0195,0.0201 0.02625,0.0321 0.04251,0.0758 -0.0051,0.16652 -0.04286,0.23217 -0.145769,0.19476 -0.03801,0.0641 -0.504444,0.33666 -0.08322,0.0486 -0.185393,0.0412 -0.272782,0.0118 -0.151128,-0.0702 -0.182177,-0.13605 -0.157512,-0.30116 0.02484,-0.14693 0.05798,-0.29594 0.131612,-0.427 0.153334,-0.0816 0.301627,-0.17341 0.460007,-0.24469 0.0181,-0.008 0.02291,0.0374 0.01468,0.079 -0.01823,0.0922 -0.06277,0.17715 -0.10161,0.26162 -0.190313,0.33522 -0.393386,0.54469 -0.803495,0.67198 -0.111649,0.003 -0.186243,-0.0262 -0.212381,-0.14437 2.04e-4,-0.0212 -0.0021,-0.0426 5.29e-4,-0.0637 0.0085,-0.0686 0.0258,-0.10671 0.05484,-0.17088 0.05709,-0.12615 0.126558,-0.2464 0.206981,-0.35913 0.07288,-0.0963 0.202769,-0.27895 0.30294,-0.34589 0.163867,-0.1095 0.334714,-0.20826 0.504618,-0.30813 0.07397,-0.0435 0.0733,-0.0366 0.147069,-0.0438 0.01548,0.0101 0.03448,0.0163 0.04646,0.0304 0.01611,0.019 0.0177,0.0545 -0.0064,0.0694 -0.224685,0.1395 -0.38489,0.25963 -0.621099,0.31835 -0.287428,0.0544 -0.579745,0.0665 -0.870585,0.0292 -0.105548,-0.0173 -0.251571,-0.0261 -0.309547,-0.13461 -0.01643,-0.0307 -0.01662,-0.0703 -0.01982,-0.10342 0.02318,-0.14312 0.07291,-0.27461 0.177112,-0.37977 0.161351,-0.0985 0.320985,-0.19995 0.484053,-0.29562 0.149841,-0.0879 0.32707,-0.0831 0.489174,-0.038 0.151522,0.0543 0.282523,0.11512 0.307669,0.29381 0.0039,0.0281 5.29e-4,0.0567 5.29e-4,0.085 -0.02516,0.1375 -0.06719,0.26478 -0.150236,0.37949 -0.02241,0.031 -0.04178,0.0665 -0.07321,0.0883 -0.159848,0.11071 -0.33098,0.20417 -0.496469,0.30626 -0.03232,0.0156 -0.06324,0.0345 -0.09695,0.0468 -0.136718,0.05 -0.278296,0.0216 -0.378592,-0.0837 -0.01283,-0.0217 -0.02864,-0.0419 -0.03848,-0.0652 -0.06724,-0.15861 -0.03913,-0.3438 -0.01421,-0.50738 0.01876,-0.0824 0.02692,-0.13271 0.05753,-0.21146 0.09838,-0.25313 0.360773,-0.40382 0.624012,-0.46113 0.01929,0.003 0.03919,0.003 0.05788,0.008 0.122233,0.036 0.185836,0.16437 0.230622,0.27168 0.01003,0.0347 0.02326,0.0686 0.03007,0.10411 0.04467,0.23239 -0.0079,0.47136 -0.06874,0.69506 -0.04111,0.11502 -0.05567,0.17179 -0.115877,0.27798 -0.02196,0.0387 -0.03879,0.0841 -0.0743,0.11091 -0.155204,0.11719 -0.324321,0.2149 -0.490659,0.31567 -0.07035,0.0426 -0.08736,0.032 -0.162989,0.0301 -0.02312,-0.0102 -0.04845,-0.0164 -0.06939,-0.0305 -0.15076,-0.10178 -0.133752,-0.30905 -0.111871,-0.46449 0.08183,-0.31664 0.177458,-0.55061 0.435506,-0.76687 0.279329,-0.16222 0.605349,-0.45435 0.95934,-0.32727 0.02606,0.009 0.05002,0.0237 0.07504,0.0355 0.02225,0.0169 0.04722,0.0308 0.06677,0.0508 0.12061,0.12338 0.09863,0.31736 0.07488,0.47106 -0.05393,0.18096 -0.117642,0.35473 -0.245367,0.49877 -0.163422,0.1843 -0.425603,0.28266 -0.623027,0.39659 -0.03643,0.0104 -0.07189,0.0252 -0.1093,0.0312 -0.102343,0.0164 -0.225848,-0.0166 -0.276934,-0.11555 -0.01074,-0.0208 -0.01278,-0.045 -0.01918,-0.0676 -5.29e-4,-0.0275 -0.0039,-0.0552 -0.0019,-0.0826 0.01426,-0.19289 0.108677,-0.37495 0.218532,-0.52929 0.217726,-0.23814 0.0866,-0.11312 0.601496,-0.41183 0.130868,-0.0759 0.285131,-0.0959 0.4328,-0.0761 0.19086,0.0463 0.236834,0.0928 0.253392,0.29172 -0.0044,0.21703 -0.06193,0.42941 -0.184854,0.61053 -0.182174,0.22443 -0.06985,0.10589 -0.561147,0.37535 -0.115729,0.0635 -0.256704,0.0411 -0.367154,-0.0177 -0.02326,-0.0185 -0.04964,-0.0336 -0.06981,-0.0554 -0.130154,-0.14077 -0.09025,-0.36017 -0.06328,-0.52933 0.02826,-0.12425 0.05626,-0.24595 0.12074,-0.35769 0.12817,-0.22211 0.388662,-0.34437 0.633582,-0.40084 0.02765,10e-4 0.05568,-0.001 0.08294,0.004 0.17018,0.0297 0.283488,0.17531 0.357111,0.3192 0.01564,0.0419 0.03513,0.0826 0.0469,0.12576 0.0737,0.2704 0.0158,0.55333 -0.08281,0.80866 -0.05831,0.1237 -0.08249,0.19438 -0.16814,0.30151 -0.163169,0.20406 -0.418515,0.3061 -0.645385,0.41943 -0.03958,0.0198 -0.08596,0.0232 -0.13009,0.0263 -0.04147,0.003 -0.08296,-0.006 -0.124442,-0.008 -0.09529,-0.0336 -0.121888,-0.0317 -0.196757,-0.10201 -0.133482,-0.12539 -0.16084,-0.31338 -0.172903,-0.48641 2.65e-4,-0.0571 -0.0019,-0.1143 0.0011,-0.17133 0.01638,-0.30204 0.08689,-0.60412 0.222816,-0.87473 0.186354,-0.27719 0.06686,-0.13398 0.578641,-0.44644 0.12428,-0.0759 0.262842,-0.0549 0.38444,0.0114 0.02222,0.0181 0.04659,0.0339 0.06663,0.0544 0.131841,0.13494 0.13857,0.33075 0.115908,0.50688 -0.03803,0.16401 -0.08054,0.32989 -0.179678,0.46958 -0.02058,0.029 -0.03956,0.0617 -0.06945,0.081 -0.159644,0.10298 -0.329822,0.18864 -0.494734,0.28296 -0.02901,0.006 -0.05748,0.016 -0.08704,0.0183 -0.152423,0.0117 -0.295634,-0.0659 -0.387633,-0.18236 -0.01643,-0.0282 -0.03602,-0.0548 -0.04931,-0.0846 -0.08444,-0.18944 -0.07974,-0.4109 -0.05967,-0.61189 0.0701,-0.40019 0.162647,-0.66393 0.692738,-0.72681 0.02638,0.006 0.05375,0.009 0.07916,0.0186 0.191868,0.0714 0.322628,0.25011 0.433912,0.41097 0.0648,0.12674 0.09398,0.17007 0.135731,0.30803 0.06329,0.2091 0.05918,0.42659 0.04791,0.64234 -0.0059,0.10024 -0.0056,0.13391 -0.01842,0.22761 -0.0032,0.0237 0.0075,0.0572 -0.01222,0.0707 -0.291772,0.19804 -0.382889,0.38215 -0.521973,0.17837 -0.05484,-0.12252 -0.09509,-0.25135 -0.120711,-0.38316 0,0 0.434547,-0.22826 0.434547,-0.22826 z"
       inkscape:connector-curvature="0" />
    <path
       style="fill:#000000;fill-opacity:1;fill-rule:nonzero;stroke:none;stroke-width:0.26458332"
       id="path4680"
       d="m 92.248386,172.55922 c 0.08934,0.0364 0.233352,0.11263 0.331583,0.0981 0.01937,-0.003 0.0364,-0.0145 0.0546,-0.0217 -0.671867,0.37585 -0.367921,0.26642 -0.288567,0.0954 0.03386,-0.073 0.04645,-0.15168 0.05945,-0.2302 0.0019,-0.0653 0.03697,-0.2447 0.0021,-0.30107 -0.0046,-0.008 -0.01482,-0.01 -0.02225,-0.0144 -0.186904,0.1065 0.23232,-0.13277 0.306412,-0.16461 0.03833,-0.0165 -0.06607,0.0512 -0.09635,0.0799 -0.03972,0.0376 -0.07767,0.0773 -0.113313,0.1188 -0.127979,0.14909 -0.139354,0.18153 -0.248227,0.35315 -0.193778,0.32739 -0.331631,0.68555 -0.403185,1.05903 0.0016,0.0196 -0.01093,0.0468 0.0046,0.0589 0.01191,0.009 0.0309,-0.0473 0.01656,-0.0423 -0.120015,0.0412 -0.220859,0.16695 -0.347293,0.156 -0.06828,-0.006 0.07294,-0.11623 0.104569,-0.17703 0.102166,-0.19637 0.156223,-0.34277 0.240988,-0.54967 0.179102,-0.46172 0.291404,-0.94449 0.353949,-1.4348 0.03443,-0.33536 -0.06487,-0.29713 0.457827,-0.44547 0.02519,-0.007 -0.0019,0.0523 -0.0026,0.0785 -0.0013,0.0395 -0.0024,0.079 -0.0034,0.11854 -0.0054,0.32086 -0.01312,0.64203 -0.0016,0.96283 0.0019,0.0179 0.0085,0.14999 0.02979,0.17821 0.0058,0.008 0.03616,-0.0127 0.02745,-0.009 -0.124537,0.0575 -0.238871,0.15333 -0.375121,0.16921 -0.04918,0.006 0.04792,-0.087 0.06584,-0.13315 0.0259,-0.0667 0.04349,-0.13641 0.06524,-0.20461 0.101902,-0.41728 0.159795,-0.84616 0.174509,-1.27542 -1.83e-4,-0.0412 0.0024,-0.13555 -0.0071,-0.18176 -0.0024,-0.0111 -0.0038,-0.0292 -0.01511,-0.0305 -0.0097,-0.001 -0.01725,0.0319 -0.0084,0.0279 0.133125,-0.0603 0.252243,-0.15134 0.389829,-0.20059 0.02723,-0.01 -0.02788,0.0507 -0.04182,0.076 -0.133119,0.30765 -0.185126,0.64174 -0.2291,0.97171 -0.01138,0.13892 -0.03495,0.27823 -0.03152,0.41814 7.94e-4,0.0296 0.0019,0.0595 0.0084,0.0883 0.003,0.0131 0.03171,0.0282 0.02008,0.0348 -0.126638,0.0723 -0.265496,0.1208 -0.398246,0.1812 0.02111,-0.0308 0.04668,-0.059 0.06331,-0.0925 0.0476,-0.0957 0.103683,-0.2855 0.12927,-0.38029 0.06042,-0.22381 0.09971,-0.45094 0.136578,-0.67949 0.008,-0.0595 0.01646,-0.11897 0.02387,-0.17857 0.0057,-0.0455 0.01045,-0.0912 0.01532,-0.13686 0.0028,-0.0266 0.0058,-0.0532 0.0078,-0.0798 7.94e-4,-0.01 -0.0083,-0.0245 2.64e-4,-0.0288 0.473168,-0.24058 0.496877,-0.33309 0.408853,-0.13106 -0.117792,0.33383 -0.1945,0.67933 -0.261374,1.02632 -0.04876,0.32695 -0.103092,0.65849 -0.08443,0.9901 0.0054,0.0184 0.0044,0.04 0.01614,0.0551 0.0043,0.006 0.02429,-0.0142 0.01788,-0.0113 -0.12982,0.0597 -0.247726,0.15589 -0.388278,0.18152 -0.04344,0.008 0.03935,-0.0793 0.05468,-0.12067 0.04942,-0.13348 0.08046,-0.26966 0.116067,-0.40726 0.07971,-0.35681 0.15375,-0.71825 0.179438,-1.08373 -0.03119,-0.17072 -0.02254,-0.0894 0.430437,-0.20715 0.02677,-0.007 -0.01262,0.0539 -0.01892,0.0808 -0.0099,0.0423 -0.02016,0.0845 -0.02972,0.1268 -0.03415,0.1513 -0.04089,0.18853 -0.07297,0.34533 -0.06165,0.31907 -0.132614,0.6374 -0.160438,0.9617 -0.0053,0.15774 0.03128,0.11892 -0.41439,0.22673 -0.03139,0.008 0.02188,-0.0608 0.03203,-0.0914 0.03544,-0.10702 0.06311,-0.20142 0.09609,-0.31041 0.09087,-0.30633 0.167714,-0.61649 0.226489,-0.93053 0.04021,-0.20923 -0.05624,-0.13079 0.450154,-0.23889 0.02609,-0.006 -0.0072,0.0529 -0.01077,0.0793 -0.02024,0.14859 -0.01037,0.0783 -0.0342,0.2403 -0.03712,0.24649 -0.05727,0.495 -0.06818,0.74389 -0.0027,-0.0471 -0.005,0.18546 0.0092,0.14575 0.005,-0.014 0.01561,-0.0503 0.0019,-0.0446 -0.133639,0.0555 -0.247513,0.15407 -0.383636,0.20315 -0.02742,0.01 0.02551,-0.0524 0.03827,-0.0786 0.08586,-0.21196 0.121854,-0.43849 0.146016,-0.66455 -0.0064,-0.13954 -0.02973,-0.0828 0.40645,-0.22474 0.02693,-0.009 -0.02609,0.0503 -0.03728,0.0763 -0.03801,0.0884 -0.06191,0.1632 -0.09369,0.25482 -0.08638,0.25482 -0.153257,0.51536 -0.222052,0.77524 -0.06594,0.21356 -0.04401,0.15892 -0.472773,0.27374 -0.02469,0.007 0.0011,-0.0512 0.0043,-0.0765 0.0071,-0.0529 0.03792,-0.18626 0.04816,-0.23255 0.03035,-0.14182 0.06751,-0.28205 0.0979,-0.42386 0.0072,-0.0334 0.01386,-0.067 0.01976,-0.10062 0.01074,-0.0613 0.02217,-0.0463 0.0061,-0.0652 0.142344,-0.0642 0.279051,-0.14281 0.427027,-0.19272 0.02013,-0.007 -0.01876,0.0381 -0.02687,0.0577 -0.01204,0.0291 -0.0226,0.0587 -0.03354,0.0882 -0.03858,0.10381 -0.07164,0.20897 -0.1049,0.31456 -0.09823,0.29094 -0.07232,0.27672 -0.527812,0.40296 -0.0245,0.007 -0.01106,-0.0498 -0.01318,-0.0752 -0.0029,-0.0339 -0.0011,-0.0681 -0.0019,-0.10213 0.0036,-0.24597 0.0074,-0.49193 0.0081,-0.73793 -0.02773,-0.22254 -0.139094,-0.0571 0.407434,-0.27178 0.01746,-0.007 -0.0258,0.0278 -0.03477,0.0443 -0.02109,0.0388 -0.05831,0.15256 -0.07059,0.18793 -0.07161,0.2316 -0.143449,0.46328 -0.207584,0.69709 -0.06226,0.21432 -0.0013,0.16563 -0.476136,0.24598 -0.02905,0.005 -0.0043,-0.0588 -0.0052,-0.0882 -0.0021,-0.0602 -0.0024,-0.20884 -0.0026,-0.26394 -0.0021,-0.14493 0.0013,-0.29003 -0.0024,-0.43496 -0.0019,-0.0725 -0.0021,-0.14254 -0.02752,-0.21076 0.03535,0.19542 -0.01714,-0.0166 0.400405,-0.16468 0.02766,-0.01 -0.02413,0.0536 -0.03475,0.0809 -0.01389,0.0358 -0.02675,0.0719 -0.03871,0.10841 -0.01159,0.0353 -0.07492,0.24805 -0.08395,0.27824 -0.04219,0.13381 -0.07681,0.26972 -0.112723,0.40527 -0.0067,0.0253 -0.01333,0.0507 -0.02085,0.0758 -0.0029,0.01 -0.0011,0.0242 -0.01035,0.0284 -0.148101,0.0679 -0.301898,0.12252 -0.452848,0.18378 -0.0019,-0.32418 0.05672,-0.64629 0.117226,-0.96377 0.01056,-0.0506 0.02072,-0.10135 0.03164,-0.1519 0.0082,-0.0379 0.01643,-0.0758 0.02574,-0.1135 0.0055,-0.0222 0.01207,-0.044 0.01855,-0.0659 0.0024,-0.008 2.64e-4,-0.0213 0.0083,-0.0248 0.476599,-0.20954 0.463659,-0.33362 0.44349,-0.0984 -0.05078,0.26854 -0.118952,0.53341 -0.181904,0.79926 -0.05804,0.22579 -0.04077,0.23568 -0.474372,0.27252 -0.04145,0.004 0.01085,-0.0825 0.0176,-0.12355 0.0213,-0.1293 0.0466,-0.2579 0.07003,-0.38684 0.03904,-0.20382 0.07314,-0.40851 0.104103,-0.6137 0.01217,-0.0806 0.02553,-0.16154 0.0315,-0.24293 0.146876,-0.0637 0.286502,-0.14783 0.44063,-0.19118 0.02241,-0.006 -0.005,0.0463 -0.0078,0.0694 -0.004,0.0339 -0.008,0.0679 -0.01246,0.10177 -0.01709,0.12965 -0.03877,0.25863 -0.05868,0.38787 -0.0058,0.042 -0.01199,0.084 -0.01752,0.12602 -0.0048,0.037 -0.0092,0.074 -0.01357,0.11098 -0.0028,0.0234 -0.0063,0.0468 -0.0079,0.0703 -5.29e-4,0.006 0.0072,0.0151 0.0019,0.0177 -0.46146,0.22041 -0.476602,0.33505 -0.411575,0.11851 0.04593,-0.1974 0.07722,-0.39768 0.100727,-0.59887 -0.0019,-0.17467 -0.0063,-0.0813 0.437803,-0.20882 0.02336,-0.007 -0.01257,0.047 -0.01855,0.0705 -0.009,0.0353 -0.01834,0.0706 -0.02638,0.10611 -0.02672,0.11792 -0.02918,0.14329 -0.04968,0.2649 -0.01992,0.13223 -0.03287,0.26538 -0.04219,0.39873 -0.0051,0.0735 -0.0149,0.14715 0.0042,0.21894 0.05032,-0.17006 -0.0065,0.0452 -0.38226,0.1694 -0.03025,0.01 0.03348,-0.0543 0.04831,-0.0825 0.02064,-0.0393 0.03974,-0.0793 0.05798,-0.11975 0.01318,-0.0292 0.116353,-0.27622 0.125687,-0.29851 0.05942,-0.15144 0.123452,-0.301 0.182825,-0.45245 0.02872,-0.0733 0.05187,-0.1501 0.09297,-0.21769 0.15239,-0.0617 0.29632,-0.15109 0.457171,-0.18513 0.02824,-0.006 0.01042,0.0569 0.01307,0.0856 0.02003,0.21844 0.0041,0.44133 -0.0063,0.65968 -0.0098,0.29407 -0.0443,0.58668 -0.05861,0.88046 -0.147677,0.0627 -0.285798,0.15619 -0.443034,0.18803 -0.03204,0.006 -0.0013,-0.0654 -0.0013,-0.0981 -9e-5,-0.0499 5.29e-4,-0.0998 7.94e-4,-0.14971 0.0011,-0.19596 0.0011,-0.3919 5.29e-4,-0.58787 -2.65e-4,-0.17021 -0.0019,-0.34041 -0.0042,-0.5106 -7.94e-4,-0.0565 0.01058,-0.16054 -0.01791,-0.21625 0.140345,-0.0589 0.270592,-0.15358 0.421034,-0.17654 0.03979,-0.006 -0.02141,0.0776 -0.03022,0.1169 -0.01429,0.0636 -0.02663,0.12769 -0.03904,0.19171 -0.05365,0.27678 -0.09829,0.55516 -0.145151,0.83314 -0.08097,0.45543 -0.142959,0.91396 -0.178448,1.37517 -0.01326,0.23137 0.036,0.25157 -0.439095,0.28151 -0.04538,0.003 0.01246,-0.0901 0.01881,-0.13512 0.05033,-0.3573 0.007,-0.0438 0.06213,-0.44667 0.05816,-0.4174 0.115562,-0.83485 0.155149,-1.25447 0.03006,-0.22663 -0.0087,-0.19946 0.464902,-0.25362 0.03483,-0.004 0.0041,0.07 0.0054,0.10503 0.0035,0.0988 0.0039,0.20898 0.0049,0.30704 0.0028,0.34595 -0.0011,0.69192 0.01662,1.03751 2.06e-4,0.002 0.0093,0.13738 0.02392,0.1625 0.0043,0.007 0.0122,-0.0286 0.0043,-0.0253 -0.137551,0.0585 -0.259567,0.1557 -0.403751,0.1951 -0.03069,0.008 0.01844,-0.0609 0.02595,-0.0918 0.01,-0.0412 0.0177,-0.0829 0.02654,-0.12432 0.0413,-0.22259 0.06906,-0.44719 0.09863,-0.6715 -2.56e-4,-0.006 -0.006,-0.015 -7.93e-4,-0.0174 0.512154,-0.23751 0.450619,-0.30913 0.454003,0.0201 0.0083,0.19372 0.106395,0.0881 -0.440832,0.23737 -0.02418,0.007 -0.01061,-0.049 -0.01593,-0.0735 -0.03302,-0.15241 -0.01632,-0.0752 -0.05259,-0.24342 -0.07234,-0.30837 -0.151448,-0.61517 -0.233151,-0.9212 -0.01767,-0.0576 -0.03513,-0.12343 -0.06119,-0.17877 -0.0069,-0.0146 -0.01148,-0.0331 -0.02553,-0.041 -0.007,-0.004 -0.02445,0.0206 -0.01714,0.0171 0.132371,-0.0622 0.253333,-0.15247 0.393562,-0.19408 0.03063,-0.009 -0.02482,0.0589 -0.03721,0.0883 -0.119253,0.38926 -0.2262,0.78227 -0.327729,1.17649 -0.01617,0.0649 -0.03212,0.12975 -0.04854,0.19454 -0.01132,0.0447 -0.05768,0.22759 -0.07622,0.28529 -0.0056,0.0173 -0.0048,0.0422 -0.02111,0.0503 -0.487188,0.24249 -0.436251,0.34 -0.470403,0.0687 -0.01495,-0.37942 -0.01535,-0.7593 -0.02048,-1.13896 -0.0066,-0.29262 -0.08858,-0.25619 0.427921,-0.35987 0.02898,-0.006 -0.0021,0.0591 -0.0027,0.0886 -7.94e-4,0.0393 -0.0013,0.0787 -0.0019,0.11799 -2.65e-4,0.13127 -0.0024,0.26257 -2.65e-4,0.39383 5.3e-4,0.0302 5.3e-4,0.0604 0.0026,0.0905 7.94e-4,0.0119 0.01717,0.0295 0.0067,0.0352 -0.139268,0.076 -0.28871,0.13176 -0.433067,0.19764 0.0062,-0.0193 0.01381,-0.0381 0.01849,-0.0578 0.01646,-0.0689 0.03367,-0.18297 0.04407,-0.24953 0.02254,-0.14417 0.04224,-0.28851 0.0602,-0.43331 0.03796,-0.33147 -0.04397,-0.25731 0.464134,-0.43119 0.01797,-0.006 -0.0021,0.0379 -0.0039,0.0568 -0.0027,0.0294 -0.0064,0.0586 -0.0096,0.088 -0.02697,0.20954 -0.05938,0.41832 -0.08668,0.62781 -0.02492,0.18569 -0.008,0.14933 -0.448878,0.19809 -0.03609,0.004 -0.0024,-0.0726 -0.0028,-0.10888 -0.0019,-0.17298 5.29e-4,-0.34611 0.0011,-0.51909 5.29e-4,-0.17246 -5.29e-4,-0.34492 -0.0024,-0.51737 -7.94e-4,-0.0752 0.0046,-0.15802 -0.01042,-0.23274 0.14264,-0.0573 0.278056,-0.13768 0.427919,-0.17187 0.02545,-0.006 -0.009,0.0515 -0.01318,0.0772 -0.0056,0.0342 -0.01066,0.0685 -0.01617,0.1027 -0.02064,0.1282 -0.03986,0.25654 -0.059,0.38497 -0.02757,0.19611 -0.05549,0.39214 -0.08048,0.58859 -0.147669,0.0703 -0.287684,0.15966 -0.443005,0.21087 -0.02008,0.007 -0.0038,-0.0422 -0.0046,-0.0633 -0.0011,-0.0288 -0.0011,-0.0577 -7.93e-4,-0.0866 0.0016,-0.11007 0.0084,-0.22024 0.0136,-0.33018 0.01439,-0.3189 -0.06445,-0.23059 0.445233,-0.40766 0.01852,-0.006 -0.009,0.0382 -0.01363,0.0572 -0.0072,0.0294 -0.01453,0.0588 -0.02178,0.0882 -0.06229,0.25836 -0.117192,0.51833 -0.157485,0.78104 -0.033,0.24692 0.003,0.22382 -0.455055,0.29676 -0.0318,0.005 0.0066,-0.0641 0.0117,-0.0959 0.01262,-0.0785 0.03739,-0.18733 0.05389,-0.26349 0.0684,-0.24976 0.120955,-0.5047 0.203293,-0.75045 0.09763,-0.17931 0.05768,-0.12414 0.474877,-0.26202 0.02201,-0.007 0.02267,0.0407 0.03048,0.0625 0.03206,0.0897 0.03762,0.19008 0.04864,0.28369 0.0031,0.0343 0.0064,0.0685 0.0092,0.10281 0.0065,0.0583 0.0071,0.11694 0.01191,0.17533 0.0011,0.0135 0.01048,0.14835 0.01617,0.0909 -0.139722,0.0697 -0.272698,0.15505 -0.419161,0.20921 -0.0191,0.007 0.01074,-0.0394 0.01416,-0.0594 0.0047,-0.0276 0.0064,-0.0557 0.01011,-0.0835 0.0141,-0.10475 0.03066,-0.20915 0.04483,-0.31389 0.03766,-0.30178 -0.02903,-0.20934 0.463571,-0.39299 0.01516,-0.006 0.0043,0.0321 0.0051,0.0483 0.0011,0.0225 5.29e-4,0.0451 7.94e-4,0.0676 0.0037,0.15173 -0.0048,0.30417 0.0065,0.45562 0.0019,0.0106 -0.0036,0.0266 0.0059,0.0317 0.009,0.005 0.0058,-0.0346 -0.0036,-0.0305 -0.139679,0.0613 -0.263284,0.15758 -0.406384,0.21042 -0.0227,0.008 0.01677,-0.0454 0.02297,-0.0688 0.01516,-0.0572 0.03251,-0.16016 0.04261,-0.2157 0.02114,-0.18153 0.06261,-0.3655 0.05629,-0.54926 0.04389,0.17755 -0.01249,-0.0168 0.421598,-0.18748 0.02077,-0.008 -0.02043,0.0397 -0.0298,0.06 -0.0164,0.0355 -0.06778,0.15618 -0.08029,0.18658 -0.01566,0.0381 -0.03059,0.0764 -0.04589,0.11464 -0.08012,0.17876 -0.141439,0.36668 -0.228804,0.54217 -0.146852,0.0788 -0.283168,0.18162 -0.440558,0.23645 -0.02495,0.009 -0.01487,-0.0515 -0.01461,-0.0779 2.65e-4,-0.0289 0.0099,-0.057 0.01627,-0.0852 0.02719,-0.12111 0.06539,-0.23914 0.102979,-0.3573 0.03608,-0.10799 0.07544,-0.21489 0.115781,-0.32136 7.94e-4,-0.002 0.03832,-0.10253 0.04512,-0.1067 0.141869,-0.087 0.291406,-0.16078 0.43711,-0.24117 0.0062,0.0221 0.01781,0.0433 0.01857,0.0662 0.0011,0.0302 -0.03383,0.12887 -0.04158,0.1503 -0.03693,0.10217 -0.08349,0.19973 -0.13003,0.29774 -0.08762,0.18231 -0.172648,0.36583 -0.25202,0.55188 -0.07414,0.19235 -0.01336,0.0994 -0.449954,0.2367 -0.02148,0.007 0.02405,-0.0381 0.03484,-0.0579 0.03616,-0.0662 0.05383,-0.10922 0.08543,-0.17919 0.01423,-0.0322 0.02869,-0.0643 0.04269,-0.0966 0.0032,-0.007 0.07098,-0.17886 0.08106,-0.18444 0.461582,-0.25555 0.422077,-0.38548 0.453623,-0.15693 -0.01916,0.13869 -0.07144,0.26968 -0.109402,0.40374 -0.03157,0.11147 -0.03386,0.12821 -0.05902,0.23918 -0.01534,0.0849 -0.04358,0.16791 -0.05345,0.25392 -5.29e-4,0.005 0.0064,0.0134 0.0016,0.0157 -0.141808,0.0688 -0.281614,0.14475 -0.431696,0.19288 -0.02231,0.007 0.01953,-0.0426 0.02929,-0.0638 0.101508,-0.30006 0.213456,-0.59636 0.326885,-0.89206 0.01577,-0.0421 0.03137,-0.0842 0.04731,-0.12617 0.01177,-0.031 0.02373,-0.062 0.03585,-0.0929 0.007,-0.0178 0.01487,-0.0353 0.0214,-0.0533 0.0016,-0.004 -0.0013,-0.0111 0.0026,-0.0128 0.466331,-0.1971 0.497729,-0.31551 0.409591,-0.10684 -0.08186,0.17486 -0.161348,0.35077 -0.238487,0.52776 -0.08421,0.21357 -0.06372,0.16498 -0.469781,0.26372 -0.02477,0.006 0.02111,-0.0464 0.03184,-0.0695 0.04777,-0.10288 0.04164,-0.0889 0.0941,-0.19603 0.09577,-0.19179 0.204931,-0.37812 0.345051,-0.54098 0.169881,-0.13776 0.161142,-0.13622 0.521714,-0.27827 0.02016,-0.008 0.03975,0.0179 0.05754,0.0303 0.06323,0.044 0.09599,0.10891 0.131961,0.1744 0.058,0.13496 0.0923,0.27845 0.117951,0.42263 0.0026,0.0178 0.0047,0.0357 0.0077,0.0534 0.0024,0.014 0.0051,0.0279 0.0084,0.0416 0.0021,0.009 0.0047,0.0185 0.0084,0.0272 7.94e-4,0.002 0.0067,0.003 0.0048,0.004 -0.443749,0.22697 -0.487826,0.36554 -0.42295,0.18879 0.01204,-0.11157 0.01244,-0.22425 0.01074,-0.33636 0.0026,-0.18709 -0.0061,-0.0777 0.44159,-0.25237 0.01619,-0.006 0.01503,0.0314 0.02117,0.0476 0.02794,0.0738 0.0508,0.15052 0.07558,0.22546 0.04837,0.15463 0.105016,0.30623 0.160054,0.4585 0.02162,0.0465 0.03632,0.0965 0.0635,0.14038 0.01344,0.0217 0.02699,0.0333 0.02913,0.0285 0.0035,-0.008 -0.0021,-0.0171 -0.0032,-0.0257 -0.611933,0.36391 -0.442431,0.35729 -0.383466,0.17478 0.0027,-0.008 0.01551,-0.0522 0.01966,-0.0547 0.144201,-0.0857 0.293497,-0.16247 0.440246,-0.2437 0.06557,0.0718 0.117406,0.15691 0.166163,0.24101 0.0077,0.0118 0.01471,0.024 0.02299,0.0353 0.01506,0.0206 0.02609,0.0324 0.03127,0.0229 0.0035,-0.006 0.0066,-0.0252 1.34e-4,-0.0218 -0.398369,0.20891 -0.491918,0.37565 -0.402381,0.2218 0.0316,-0.1701 0.0056,-0.0487 0.446808,-0.20602 0.01072,-0.004 0.0028,0.0226 0.0042,0.0339 0.0053,0.0414 0.01011,0.0827 0.01688,0.12389 0.0013,0.005 0.0071,0.0174 0.0041,0.0137 -0.004,-0.005 -0.0048,-0.0118 -0.0072,-0.0176 -0.141991,0.0758 -0.280308,0.15899 -0.425977,0.22749 -0.0087,0.004 0.0024,-0.019 0.0029,-0.0285 0.0016,-0.0222 0.0019,-0.0519 0.0024,-0.0739 0.0051,-0.0713 -0.0019,-0.13971 -0.02543,-0.20699 -0.01461,-0.0578 -0.03937,-0.0959 -0.09643,-0.11478 -0.05913,-0.0148 -0.11185,-0.0131 -0.170117,0.002 -0.03559,0.008 -0.01921,0.001 -0.04945,0.018 0,0 0.387384,-0.30303 0.387384,-0.30303 v 0 c 0.03577,-0.008 0.01765,-0.004 0.05437,-0.011 0.06304,-0.008 0.127691,-5.2e-4 0.187048,0.0225 0.06127,0.0328 0.09989,0.0808 0.116818,0.14923 0.02556,0.0724 0.0385,0.14562 0.03248,0.22279 -1.35e-4,0.025 0.0035,0.10273 -2.09e-4,0.10529 -0.137435,0.094 -0.416685,0.38791 -0.446535,0.22407 -0.03583,-0.30151 -0.09116,-0.12824 0.415851,-0.40185 0.0032,-0.002 -0.0036,0.006 -0.0054,0.01 -0.01828,0.18891 -0.34072,0.41537 -0.475581,0.26309 -0.01458,-0.0164 -0.03294,-0.0482 -0.04378,-0.0657 -0.02342,-0.0414 -0.0939,-0.1635 -0.128294,-0.18986 -0.0028,-0.002 -0.0071,1.1e-4 -0.01066,1.6e-4 0.136872,-0.08 0.274648,-0.15839 0.410612,-0.23988 0.0058,-0.003 -0.01484,8e-4 -0.01968,0.006 -0.007,0.007 -0.0096,0.0172 -0.01267,0.0265 -4e-5,1.2e-4 -0.01418,0.0676 -0.01651,0.0692 -0.139861,0.0967 -0.287872,0.18094 -0.431811,0.27141 -0.07203,-0.0491 -0.09287,-0.13557 -0.124277,-0.21299 -0.05349,-0.15329 -0.107873,-0.30616 -0.157819,-0.46071 -0.04159,-0.12222 -0.01318,-0.0422 -0.05739,-0.15871 -0.0073,-0.0192 -0.01336,-0.0389 -0.02154,-0.0577 -0.0046,-0.0105 -0.02611,-0.0237 -0.01662,-0.0302 0.134702,-0.0917 0.279638,-0.16758 0.422413,-0.24615 0.0057,-0.003 -0.0052,0.012 -0.0078,0.018 -0.0029,0.11369 -0.003,0.22744 -0.0062,0.34112 0.0036,0.20595 0.01286,0.057 -0.443508,0.2774 -0.01434,0.007 -0.03132,-0.13662 -0.03251,-0.14773 -0.02093,-0.13968 -0.05243,-0.27873 -0.107813,-0.40912 -0.03013,-0.0535 -0.05845,-0.11598 -0.117245,-0.14457 -0.01352,-0.007 -0.05605,-0.002 -0.04391,-0.0104 0.177136,-0.12961 0.52769,-0.31003 0.315248,-0.19967 -0.149735,0.15372 -0.260379,0.3398 -0.356341,0.53076 -0.04849,0.10051 -0.04684,0.0942 -0.08879,0.1915 -0.0094,0.0218 -0.0073,0.0532 -0.02741,0.0659 -0.654175,0.4116 -0.498044,0.36018 -0.413959,0.14295 0.07896,-0.17539 0.160501,-0.34962 0.237826,-0.52576 0.0855,-0.22069 0.0065,-0.0572 0.482277,-0.29585 0.0047,-0.002 -0.0091,0.006 -0.01185,0.0105 -0.01082,0.0174 -0.01982,0.0358 -0.02855,0.0543 -0.01466,0.031 -0.02838,0.0625 -0.04153,0.0943 -0.01757,0.0424 -0.03371,0.0853 -0.05056,0.12792 -0.115636,0.29075 -0.230378,0.58291 -0.314396,0.88466 -0.06011,0.22936 -0.0063,0.0944 -0.473829,0.30222 -0.0091,0.004 -0.0024,-0.0199 -0.0011,-0.0298 0.0118,-0.0879 0.04551,-0.17225 0.06107,-0.25934 0.04786,-0.21152 0.116284,-0.41726 0.16112,-0.62916 0.09617,-0.15638 0.01585,-0.0329 0.432941,-0.25848 0.01016,-0.005 -0.01839,0.0146 -0.02458,0.0244 -0.02029,0.032 -0.05877,0.12677 -0.07139,0.1556 -0.0141,0.0322 -0.02856,0.0643 -0.04285,0.0964 -0.02707,0.0643 -0.0488,0.11749 -0.07775,0.18031 -0.009,0.0196 -0.0098,0.0472 -0.02839,0.0583 -0.399002,0.23832 -0.53509,0.39101 -0.437954,0.16274 0.08188,-0.18671 0.168106,-0.37147 0.255643,-0.55559 0.04622,-0.0954 0.09302,-0.19025 0.128836,-0.29018 0.0093,-0.0259 0.01675,-0.0524 0.02519,-0.0786 0.0056,-0.0174 0.0079,-0.0362 0.01688,-0.0521 0.0026,-0.005 0.01003,-0.003 0.01503,-0.004 0.137549,-0.0811 0.27237,-0.16697 0.412647,-0.24322 0.01241,-0.007 -0.01937,0.0209 -0.02633,0.0332 -0.06872,0.12105 -0.09775,0.26308 -0.152744,0.38994 -0.03186,0.0983 -0.04856,0.14472 -0.07427,0.24437 -0.01527,0.0592 -0.01968,0.12118 -0.03913,0.17913 -0.05299,0.15794 -1.445667,-0.45965 -0.427159,0.25948 0.04708,-0.0596 0.02156,-0.0209 0.06249,-0.1127 0.06288,-0.14102 0.124071,-0.28283 0.181597,-0.42614 0.04409,-0.11584 0.330536,-1.00592 0.60257,-0.59591 -0.0074,0.18833 -0.043,0.37523 -0.06453,0.56215 -0.01132,0.0722 -0.02109,0.14462 -0.03389,0.21656 -0.0043,0.0244 0.0043,0.0574 -0.01513,0.0727 -0.02919,0.023 -0.387466,0.40899 -0.468238,0.25385 -0.0057,-0.011 -0.0032,-0.0246 -0.0048,-0.037 -0.0099,-0.15234 0.0038,-0.30551 -0.0059,-0.458 -0.0011,-0.0212 -0.0024,-0.0423 -0.0034,-0.0635 -5.29e-4,-0.0107 -0.01064,-0.0264 -0.0016,-0.0321 0.139423,-0.0874 0.288314,-0.15874 0.43247,-0.23811 -0.0036,0.008 -0.0086,0.0152 -0.01085,0.0236 -0.01146,0.0421 -0.01955,0.1153 -0.02482,0.15391 -0.01855,0.13153 -0.039,0.26253 -0.04857,0.39502 -0.0016,0.022 0.01257,0.0528 -0.0051,0.066 -0.137531,0.10281 -0.293651,0.17807 -0.440476,0.2671 -0.0063,-0.009 -0.01542,-0.0159 -0.01897,-0.026 -0.005,-0.0142 -0.0043,-0.0299 -0.0058,-0.0449 -0.0118,-0.11459 -0.008,-0.23024 -0.02217,-0.3447 -0.0087,-0.0732 -0.01281,-0.12369 -0.02859,-0.19523 -0.0052,-0.0236 -0.01151,-0.047 -0.01955,-0.0698 -0.0038,-0.0109 -0.02529,-0.024 -0.01587,-0.0306 0.128995,-0.0904 0.269121,-0.16379 0.405588,-0.24244 0.01251,-0.007 -0.02215,0.0185 -0.03321,0.0278 -0.101515,0.23911 -0.1455,0.49921 -0.215956,0.74821 -0.01426,0.0704 -0.03818,0.18224 -0.04855,0.25569 -0.0041,0.0292 0.01453,0.0695 -0.0084,0.088 -0.567245,0.45678 -0.44678,0.38513 -0.407381,0.13442 0.04439,-0.26178 0.09966,-0.52133 0.152183,-0.78157 0.0056,-0.0285 0.01119,-0.057 0.0168,-0.0856 0.0033,-0.0166 -0.0047,-0.0409 0.0097,-0.0498 0.538358,-0.33553 0.438359,-0.34606 0.423939,-0.0264 -0.0063,0.13597 -0.01479,0.27146 -0.0071,0.4075 7.94e-4,0.0157 0.01625,0.0383 0.0032,0.0471 -0.13665,0.0918 -0.287547,0.16032 -0.431319,0.24048 0.0277,-0.0629 0.03157,-0.13712 0.04202,-0.20426 0.02003,-0.12864 0.04086,-0.25718 0.05657,-0.38644 0.02373,-0.16068 0.04799,-0.3217 0.0668,-0.48304 0.003,-0.0256 -0.0123,-0.0612 0.0082,-0.0769 0.137874,-0.10531 0.296854,-0.17965 0.44528,-0.26947 0.003,0.0748 0.0013,0.004 -0.0021,0.1204 -0.006,0.2153 -0.0053,0.43079 -0.0058,0.64614 0.0013,0.17028 0.0019,0.34069 0.01053,0.51079 0.0019,0.034 0.03242,0.079 0.0072,0.10194 -0.125963,0.11478 -0.279887,0.19518 -0.427241,0.28079 -0.01193,0.007 0.008,-0.0264 0.01206,-0.0396 0.03596,-0.20767 0.06649,-0.41628 0.08939,-0.62581 0.0019,-0.0279 0.0043,-0.0557 0.0057,-0.0836 7.94e-4,-0.0163 -0.01299,-0.0401 7.94e-4,-0.049 0.784502,-0.50593 0.464327,-0.37272 0.427556,-0.19924 -0.0099,0.0467 -0.02291,0.1539 -0.02818,0.19353 -0.03469,0.24986 -0.07542,0.49972 -0.09688,0.75094 -0.150646,0.0761 -0.295656,0.16462 -0.451934,0.22838 -0.01341,0.005 -0.0013,-0.029 -0.0013,-0.0435 2.64e-4,-0.0311 0.0021,-0.0621 0.0026,-0.0932 0.0011,-0.0761 5.3e-4,-0.18849 -2.1e-5,-0.26382 -2.64e-4,-0.0431 -7.93e-4,-0.0861 -0.0011,-0.12917 -7.94e-4,-0.0386 -0.0013,-0.0771 -0.0024,-0.11571 -7.94e-4,-0.0285 -0.02532,-0.0674 -0.0032,-0.0854 0.519665,-0.42268 0.433014,-0.38104 0.425643,-0.0755 -0.0041,0.3764 -0.0087,0.75392 0.02519,1.12919 0.03911,0.25084 0.04585,0.10163 -0.398147,0.35135 -0.0167,0.009 0.0285,-0.0269 0.03664,-0.0443 0.01815,-0.0386 0.02857,-0.0804 0.04107,-0.12123 0.03399,-0.11087 0.06977,-0.25279 0.09873,-0.36337 0.102409,-0.39036 0.209912,-0.77942 0.307903,-1.17093 0.06891,-0.25899 0.01217,-0.13399 0.479375,-0.38206 0.01341,-0.007 0.02891,0.0124 0.03879,0.024 0.04291,0.0501 0.05877,0.17899 0.08115,0.23682 0.07465,0.30827 0.151522,0.61595 0.233101,0.92245 0.02164,0.0882 0.03615,0.1516 0.0608,0.23722 0.0068,0.0235 0.04108,0.0546 0.02207,0.07 -0.539718,0.43724 -0.431755,0.41002 -0.42468,0.21841 -7.94e-4,-0.34142 -0.08196,-0.14951 0.434377,-0.43637 0.004,-0.002 -0.0093,-2.7e-4 -0.01389,-5.3e-4 -0.02331,0.0825 -0.03348,0.16638 -0.04633,0.25108 -0.02151,0.14184 -0.04552,0.28331 -0.06442,0.42554 -0.0071,0.0412 -0.01418,0.0824 -0.02135,0.12359 -0.0055,0.0317 0.0078,0.0742 -0.01669,0.095 -0.134798,0.11448 -0.28714,0.20791 -0.441524,0.29417 -0.01254,0.007 -0.02503,-0.0171 -0.03048,-0.0305 -0.02209,-0.0539 0.01154,-0.12261 -0.01556,-0.17412 -0.0099,-0.34677 -0.0043,-0.69359 -0.01275,-1.04041 -0.0036,-0.10533 -0.0055,-0.19572 -0.01339,-0.29988 -0.0024,-0.0322 -0.03445,-0.0755 -0.0098,-0.0963 0.128791,-0.10845 0.290726,-0.17006 0.432988,-0.26011 0.0064,-0.004 -0.01524,2.6e-4 -0.02286,5.3e-4 -0.0065,0.0243 -0.01304,0.0487 -0.01955,0.073 -0.05881,0.42084 -0.116883,0.84183 -0.172014,1.26316 -0.01418,0.12751 -0.03517,0.30604 -0.046,0.43745 -0.0035,0.0429 0.02461,0.10033 -0.0076,0.12881 -0.129813,0.11469 -0.293013,0.18511 -0.443921,0.27015 -0.03671,0.0207 0.218464,-0.27653 0.02471,-0.12395 0.05085,-0.46534 0.1196,-0.9284 0.200239,-1.3895 0.04399,-0.27499 0.08674,-0.55014 0.128339,-0.8255 0.0094,-0.0625 0.01839,-0.12506 0.02764,-0.18758 0.0058,-0.0389 -0.01297,-0.0917 0.01741,-0.11674 0.135067,-0.11119 0.300554,-0.17915 0.450829,-0.26872 0.01916,0.0769 0.0094,0.16105 0.0082,0.23936 -0.0026,0.17148 -0.0041,0.34298 -0.0038,0.51449 5.29e-4,0.19442 5.29e-4,0.38886 0.007,0.5832 0.0016,0.0482 0.0037,0.0964 0.0064,0.14454 0.0016,0.0293 0.02982,0.0694 0.007,0.0879 -0.129805,0.10503 -0.287345,0.17016 -0.43102,0.25524 0.0354,-0.0913 0.03487,-0.20443 0.04397,-0.30008 0.01852,-0.19466 0.03565,-0.38958 0.04275,-0.58506 0.0064,-0.1778 0.0113,-0.35397 7.94e-4,-0.53171 -0.0021,-0.0368 -0.0049,-0.0735 -0.0089,-0.11018 -0.0024,-0.0221 -0.02789,-0.0526 -0.01011,-0.066 0.129788,-0.0979 0.281294,-0.16318 0.421941,-0.24477 -0.01098,0.005 -0.02529,0.005 -0.03293,0.0142 -0.02973,0.0357 -0.07456,0.16101 -0.0865,0.19016 -0.06198,0.1513 -0.127759,0.30106 -0.185722,0.454 -0.02111,0.0518 -0.04255,0.10351 -0.06337,0.15546 -0.07833,0.19538 -0.299292,0.86974 -0.641795,0.60354 -0.01638,-0.0805 -0.0073,-0.15626 -1e-4,-0.23799 0.01188,-0.13465 0.02574,-0.26916 0.04341,-0.40319 0.01871,-0.1237 0.03977,-0.24628 0.06418,-0.36898 0.0043,-0.0217 -0.0054,-0.0529 0.01304,-0.0652 0.140935,-0.0938 0.29565,-0.16523 0.447063,-0.24092 0.0065,-0.003 -0.0044,0.0138 -0.0066,0.0207 -0.03965,0.1997 -0.06038,0.4031 -0.100118,0.60289 -0.04288,0.23406 0.0024,0.0895 -0.463878,0.31427 -0.0084,0.004 7.94e-4,-0.0186 0.0021,-0.0277 0.04514,-0.27193 -0.025,0.20318 0.02994,-0.18474 0.006,-0.0424 0.01225,-0.0847 0.01839,-0.12702 0.02424,-0.15996 0.05241,-0.3197 0.06279,-0.48136 0.0013,-0.0216 -0.01558,-0.0526 0.0024,-0.0649 0.138459,-0.0953 0.295162,-0.16102 0.442743,-0.24153 -0.03478,0.0707 -0.04469,0.17631 -0.05794,0.24974 -0.037,0.20499 -0.06846,0.41098 -0.107264,0.61565 -0.01815,0.1137 -0.043,0.26151 -0.05734,0.37799 -0.0046,0.0372 0.01847,0.0883 -0.01056,0.11203 -0.131905,0.10784 -0.294084,0.17213 -0.441505,0.25755 -0.0084,0.005 0.01627,-0.0106 0.02439,-0.0159 0.01,-0.0288 0.01998,-0.0575 0.02998,-0.0863 0.06457,-0.26136 0.132498,-0.52231 0.175749,-0.78831 0.02149,-0.23254 -0.01437,-0.0411 0.447054,-0.30081 0.0077,-0.004 -0.02093,-0.004 -0.02643,0.003 -0.01471,0.0186 -0.02013,0.0429 -0.02756,0.0654 -0.01249,0.0378 -0.02228,0.0764 -0.03202,0.11491 -0.01281,0.0507 -0.02371,0.10181 -0.03557,0.15271 -0.06315,0.30527 -0.116075,0.6156 -0.108659,0.92848 -0.142587,0.0825 -0.285142,0.16503 -0.42776,0.24746 -0.0086,0.005 0.02064,-0.007 0.02567,-0.0151 0.01384,-0.0235 0.02024,-0.0506 0.02837,-0.0766 0.04218,-0.13496 0.07252,-0.27373 0.116287,-0.40826 0.01389,-0.0481 0.02818,-0.0961 0.0417,-0.14436 0.05211,-0.18581 0.20973,-0.88728 0.571005,-0.59555 0.019,0.0764 0.01937,0.15207 0.0199,0.23078 0.0011,0.14492 -0.0037,0.2899 0.0011,0.43481 0.0026,0.0965 0.0032,0.16246 0.0098,0.25691 0.0019,0.026 0.02843,0.0621 0.0076,0.0778 -0.132874,0.10045 -0.292934,0.15893 -0.435277,0.24544 -0.02008,0.0122 0.182539,0.002 0.04699,-0.0525 0.0684,-0.23374 0.143508,-0.4655 0.209119,-0.70008 0.02006,-0.064 0.03829,-0.1285 0.05916,-0.19221 0.0066,-0.0201 0.0036,-0.0489 0.02185,-0.0597 0.402884,-0.23913 0.45583,-0.38721 0.477806,-0.12915 -0.0073,0.24528 -0.01476,0.49072 -0.0097,0.73612 0.0016,0.0316 0.0027,0.0632 0.0047,0.0947 0.0011,0.0157 0.01699,0.0381 0.0041,0.0472 -0.132035,0.0926 -0.278794,0.16214 -0.41819,0.24321 0.0096,-0.008 0.0222,-0.0134 0.02875,-0.024 0.01437,-0.0233 0.0575,-0.14616 0.0639,-0.16368 0.03401,-0.10506 0.06619,-0.21046 0.101803,-0.315 0.0098,-0.0288 0.02013,-0.0575 0.0292,-0.0865 0.0066,-0.021 -7.94e-4,-0.0517 0.0177,-0.0636 0.144691,-0.0932 0.304171,-0.1611 0.456256,-0.24166 0.01127,0.0605 -0.02045,0.13923 -0.03377,0.19587 -0.03304,0.14056 -0.06781,0.28075 -0.09652,0.42228 -0.01548,0.0771 -0.03039,0.14528 -0.04178,0.22246 -0.0028,0.019 0.0098,0.0466 -0.0061,0.0573 -0.137396,0.0921 -0.290097,0.15901 -0.435147,0.23852 0.0057,-0.005 0.01328,-0.009 0.0172,-0.0152 0.01029,-0.0172 0.01648,-0.0365 0.02471,-0.0547 0.07745,-0.25986 0.145449,-0.52258 0.228502,-0.78082 0.03119,-0.0972 0.05048,-0.15927 0.08307,-0.25395 0.0092,-0.0266 0.0057,-0.0628 0.02845,-0.0794 0.141992,-0.10365 0.295641,-0.19144 0.452152,-0.2715 0.01072,-0.005 0.01783,0.018 0.02058,0.0297 0.0042,0.0177 -5.29e-4,0.0365 -5.29e-4,0.0547 -0.03164,0.22839 -0.06343,0.45799 -0.140137,0.67664 -0.08839,0.2416 -0.02842,0.12822 -0.475559,0.38458 -0.01437,0.008 -0.0333,-0.009 -0.04564,-0.0197 -0.04129,-0.0371 -0.0052,-0.13053 -0.01183,-0.17333 0.01704,-0.25068 0.03902,-0.50105 0.07218,-0.75017 0.01214,-0.0956 0.01913,-0.14194 0.02719,-0.23494 0.0021,-0.0254 -0.01574,-0.0615 0.005,-0.0764 0.13903,-0.0996 0.299384,-0.16549 0.448791,-0.24876 0.0035,-0.002 -0.0074,0.003 -0.01114,0.005 -0.0057,0.0186 -0.01132,0.0372 -0.01699,0.0558 -0.07306,0.3147 -0.149836,0.62844 -0.237268,0.93954 -0.02773,0.1017 -0.05653,0.20311 -0.08351,0.30501 -0.0082,0.0308 0.0019,0.0732 -0.02318,0.0928 -0.13953,0.1087 -0.296502,0.19372 -0.452236,0.27757 -0.0088,0.005 -0.01257,-0.017 -0.01312,-0.027 -0.0011,-0.0203 0.0055,-0.0402 0.0083,-0.0603 0.03875,-0.32672 0.109524,-0.64821 0.17022,-0.9713 0.02893,-0.1548 0.05976,-0.30941 0.08698,-0.46453 0.0045,-0.0255 -0.009,-0.0617 0.01199,-0.0768 0.138494,-0.0993 0.29292,-0.17486 0.445326,-0.2511 0.0087,-0.004 -0.0013,0.0195 -0.0019,0.0292 -0.05809,0.36791 -0.117215,0.73595 -0.198469,1.09959 -0.03815,0.16405 -0.05554,0.24778 -0.09958,0.40565 -0.01199,0.043 -0.0046,0.0998 -0.03905,0.12806 -0.140542,0.11537 -0.30249,0.20354 -0.464788,0.28551 -0.01463,0.007 -0.02979,-0.0173 -0.03754,-0.0318 -0.01085,-0.0202 -0.01032,-0.0447 -0.01548,-0.0671 -0.0083,-0.33812 0.04937,-0.67461 0.09696,-1.00823 0.06294,-0.34426 0.138372,-0.68572 0.235908,-1.02196 0.05881,-0.22349 0.0066,-0.0909 0.470509,-0.29223 0.01056,-0.005 -0.0049,0.0225 -0.0072,0.0338 -0.0254,0.12487 -0.01323,0.0633 -0.03791,0.22368 -0.0093,0.0606 -0.01886,0.12125 -0.02831,0.18187 -0.06846,0.39717 -0.13735,0.80075 -0.289044,1.17599 -0.160104,0.0794 -0.312571,0.17652 -0.480311,0.23813 -0.01815,0.007 -0.01842,-0.0346 -0.02217,-0.0536 -0.03402,-0.17172 0.02537,-0.35161 0.03198,-0.52246 0.04367,-0.33037 0.09335,-0.66351 0.208698,-0.97775 0.09151,-0.24089 0.0291,-0.12769 0.486508,-0.36718 0.07807,-0.0409 0.05809,0.26711 0.05681,0.26366 -0.02953,0.43342 -0.09304,0.86497 -0.180515,1.29032 -0.01775,0.0684 -0.03295,0.1375 -0.05323,0.20518 -0.01426,0.0476 -0.01206,0.10864 -0.05033,0.14035 -0.02032,0.0168 -0.431242,0.41939 -0.521536,0.25923 -0.02098,-0.0372 -0.02387,-0.16126 -0.02601,-0.192 -0.0054,-0.32081 0.0053,-0.64174 -0.0019,-0.96257 -7.93e-4,-0.0383 -0.0013,-0.0767 -0.0026,-0.11502 -7.94e-4,-0.0235 -0.02249,-0.0568 -0.0034,-0.0705 0.800322,-0.57695 0.456313,-0.38031 0.428014,-0.20927 -0.01204,0.0728 -0.01458,0.14693 -0.02734,0.21959 -0.07745,0.49601 -0.194643,0.98525 -0.372358,1.45568 -0.08167,0.20985 -0.130609,0.34447 -0.22174,0.54659 -0.02724,0.0604 -0.03753,0.1348 -0.08718,0.17872 -0.14574,0.12894 -0.313348,0.23285 -0.483907,0.32652 -0.0186,0.0102 -0.04578,-0.0114 -0.05623,-0.0299 -0.01209,-0.0214 -0.0016,-0.0491 -0.0024,-0.0737 0.08189,-0.37874 0.221197,-0.74454 0.412864,-1.08152 0.03905,-0.0656 0.07523,-0.13301 0.11716,-0.1968 0.06816,-0.10371 0.139071,-0.19068 0.223147,-0.2806 0.02791,-0.0299 0.05271,-0.0644 0.08737,-0.086 0.472167,-0.29496 0.312721,-0.30722 0.559575,-0.26666 0.01151,0.0127 0.02611,0.0231 0.0345,0.038 0.04467,0.0795 0.0028,0.23562 0.0021,0.32241 -0.01453,0.10759 -0.0315,0.21833 -0.08273,0.31588 -0.01093,0.0208 -0.01873,0.0464 -0.03851,0.0591 -0.151299,0.0974 -0.312584,0.17834 -0.468876,0.26751 -0.02135,0.003 -0.04255,0.008 -0.06404,0.008 -0.121131,-0.002 -0.231807,-0.0715 -0.34381,-0.10807 0,0 0.407855,-0.27102 0.407855,-0.27102 z"
       inkscape:connector-curvature="0" />
  </g>
</svg>
